<?xml version="1.0" standalone="no"?>
<!DOCTYPE svg PUBLIC "-//W3C//DTD SVG 20010904//EN"
 "http://www.w3.org/TR/2001/REC-SVG-20010904/DTD/svg10.dtd">
<svg version="1.0" xmlns="http://www.w3.org/2000/svg"
 width="512.000000pt" height="512.000000pt" viewBox="0 0 512.000000 512.000000"
 preserveAspectRatio="xMidYMid meet">

<g transform="translate(0.000000,512.000000) scale(0.100000,-0.100000)"
fill="currentColor" stroke="none">
<path d="M2425 4878 c-465 -46 -970 -257 -1342 -560 -512 -415 -848 -1027
-929 -1688 -23 -188 -15 -555 15 -723 48 -272 117 -482 236 -722 128 -257 182
-335 359 -510 216 -215 407 -353 666 -481 173 -86 307 -134 371 -134 45 0 55
4 85 34 l34 34 0 247 c0 230 -1 246 -17 241 -53 -16 -210 -28 -293 -23 -175
11 -311 69 -426 182 -52 51 -80 89 -103 140 -118 253 -169 325 -289 413 -87
63 -112 90 -112 119 0 32 35 47 110 46 126 -1 261 -79 353 -203 148 -201 193
-247 279 -289 124 -61 288 -63 443 -8 l60 22 20 80 c23 88 61 165 112 224 38
45 38 45 -57 56 -97 12 -240 46 -344 82 -425 147 -661 453 -716 932 -18 153
-8 415 19 516 29 105 107 263 174 349 l54 69 -20 61 c-13 41 -21 101 -24 187
-6 138 4 217 43 346 28 95 34 98 133 88 131 -13 340 -100 520 -215 l81 -52 82
21 c190 46 335 62 561 62 198 0 357 -17 531 -56 l109 -25 78 50 c170 109 360
190 496 211 118 18 126 14 152 -76 56 -187 63 -367 22 -528 l-20 -78 53 -68
c171 -222 233 -489 196 -839 -51 -472 -267 -779 -655 -932 -102 -40 -275 -84
-396 -100 -52 -7 -96 -14 -98 -16 -2 -2 10 -19 28 -39 43 -49 88 -142 113
-234 20 -72 21 -96 19 -493 -2 -446 1 -482 45 -517 48 -37 89 -37 198 -1 130
44 385 171 516 257 761 500 1197 1340 1167 2243 -7 186 -15 261 -48 430 -75
377 -280 816 -490 1047 -425 467 -1003 757 -1639 823 -114 12 -390 11 -515 -2z"/>
</g>
</svg>
